<?xml version="1.0" encoding="UTF-8"?>
<svg width="128px" height="48px" viewBox="0 0 128 48" version="1.1" xmlns="http://www.w3.org/2000/svg" xmlns:xlink="http://www.w3.org/1999/xlink">
    <g>
                <path d="M127.651874,30.9122216 L119.081475,2.89097143 C118.692469,1.49211429 117.428201,0.606171429 115.96943,0.606171429 L107.508559,0.606171429 C106.049788,0.606171429 104.78552,1.49211429 104.44514,2.89097143 L96.9416063,27.2942571 C99.8264637,27.5183596 102.688518,27.7720242 105.526139,28.0545243 L110.426101,10.5380571 C110.669229,9.4656 110.912358,8.25325714 111.10686,7.1808 L112.419754,7.1808 C112.517006,8.25325714 112.80876,9.4656 113.051888,10.5380571 L118.358657,29.5491314 C121.491916,29.9680956 124.590452,30.4228137 127.651874,30.9122216 Z" id="Combined-Shape" fill="#215BA9"></path>
                <path d="M84.4989598,26.5195522 C84.6805396,25.6461634 84.6344581,24.6966518 84.6344581,24.0137143 C84.6344581,22.4749714 83.9536983,22.0086857 81.9600447,21.3092571 L75.2496983,18.7446857 C69.9494972,16.6930286 68.0044693,13.9419429 68.0044693,9.18582857 C68.0044693,1.81851429 71.602771,0 81.0847821,0 C84.488581,0 88.8648939,0.233142857 92.7549497,1.44548571 L92.1714414,7.1808 C89.3025252,7.13417143 84.8775866,7.04091429 80.9875307,7.04091429 C78.0213631,7.04091429 77.0488492,7.27405714 77.0488492,9.04594286 C77.0488492,10.5380571 77.8754861,11.0976 80.2581453,11.8902857 L86.433609,14.1750857 C91.9283129,16.2733714 93.7760894,19.1177143 93.7760894,23.8272 C93.7760894,25.0311345 93.6868425,26.0983943 93.4931366,27.0412413 C90.5177698,26.8357205 87.5191253,26.6615633 84.4989598,26.5195522 Z" id="Combined-Shape" fill="#215BA9"></path>
                <path d="M64.226458,26.0574222 L57.1409162,2.89097143 C56.9078746,2.0529581 56.3607146,1.39902193 55.6457975,1.00936301 C50.6480244,13.5086925 52.8258052,22.9408993 53.8882054,26.194952 C57.3103609,26.1075976 60.7572635,26.0613897 64.226458,26.0574222 Z M35.0599222,27.1027827 L42.504581,2.89097143 C42.8449609,1.49211429 44.1092291,0.606171429 45.568,0.606171429 L54.0288715,0.606171429 C54.5759197,0.606171429 55.0956151,0.730761289 55.5520563,0.960268599 C46.6350111,11.9421871 44.7748387,23.3388933 44.4156596,26.544116 C41.2729702,26.6958172 38.1537296,26.882334 35.0599222,27.1027827 Z" id="Combined-Shape" fill="#215BA9"></path>
                <path d="M0.715083799,31.083822 L0.715083799,3.68365714 C0.715083799,1.67862857 1.83347486,0.606171429 3.92437989,0.606171429 L8.20344134,0.606171429 C10.0998436,0.606171429 10.7806034,1.49211429 11.7531173,3.17074286 L19.4359777,16.4598857 C20.3112402,17.952 21.1865028,19.8637714 21.964514,21.8221714 L22.3535196,21.8221714 C22.1590168,19.9104 22.0131397,18.0918857 22.0131397,16.1801143 L21.964514,0.606171429 L30.4253855,0.606171429 L30.4253855,27.4598837 C26.3942836,27.7939759 22.4088125,28.1858898 18.4734738,28.6336204 L11.4127374,16.4132571 C10.5861006,14.9211429 9.75946369,12.9161143 9.22458101,11.1442286 L8.83557542,11.1442286 C9.07870391,12.9627429 9.22458101,14.8745143 9.22458101,16.6464 L9.22458101,29.8007876 C6.35773895,30.1987224 3.52062145,30.6266773 0.715082598,31.0838263 Z" id="Combined-Shape" fill="#215BA9"></path>
                <path d="M3.15785126,39.6123429 C1.27003004,39.6123429 0.446253499,39.9085714 0.446253499,41.6420571 C0.446253499,42.7721143 0.869583108,43.4742857 2.03659987,43.8363429 L3.62694624,44.3190857 C4.19901328,44.4946286 4.46216411,44.6262857 4.46216411,45.3174857 C4.46216411,46.0964571 4.17613059,46.2390857 3.14640992,46.2390857 C2.59722557,46.2390857 2.13957193,46.2281143 0.640756292,46.1952 L0.549225566,47.2045714 C1.69335964,47.424 2.63154959,47.4459429 3.1120859,47.4459429 C5.13720322,47.4459429 5.91521439,47.0509714 5.91521439,45.3284571 C5.91521439,44.2203429 5.53765015,43.5072 4.290544,43.1232 L2.76884568,42.6733714 C2.15101328,42.4868571 1.88786244,42.3332571 1.88786244,41.664 C1.88786244,40.8521143 2.242544,40.7972571 3.20361663,40.7972571 C3.9816278,40.7972571 4.89693506,40.8192 5.54909149,40.8411429 L5.64062221,39.8646857 C4.793963,39.6562286 3.91297976,39.6123429 3.15785126,39.6123429 Z M12.3767115,39.6452571 C11.0266333,39.6452571 10.4202423,39.6562286 9.51637634,39.744 L9.51637634,47.3142857 L10.9465439,47.3142857 L10.9465439,44.4288 C11.4270802,44.4836571 11.9877059,44.5165714 12.559773,44.5165714 C14.4247115,44.5165714 15.0883093,44.0009143 15.0883093,42.0809143 C15.0883093,40.1718857 14.4247115,39.6452571 12.3767115,39.6452571 Z M10.9465439,43.3974857 L10.9465439,40.7862857 L12.3423875,40.7753143 C13.3377842,40.7753143 13.6467004,41.0386286 13.6467004,42.0809143 C13.6467004,43.1232 13.3377842,43.3865143 12.3423875,43.3974857 L10.9465439,43.3974857 Z M22.4307897,45.1748571 L23.0829461,47.3142857 L24.5474377,47.3142857 L22.1790802,40.1060571 C22.1104321,39.8756571 21.904488,39.744 21.6642198,39.744 L20.2683763,39.744 C20.0281081,39.744 19.822164,39.8756571 19.7535159,40.1060571 L17.3851584,47.3142857 L18.84965,47.3142857 L19.5018064,45.1748571 L22.4307897,45.1748571 Z M22.0875495,44.0448 L19.8450467,44.0448 L20.6344992,41.4336 L20.8175606,40.7862857 L21.1264768,40.7862857 C21.1608008,40.9947429 21.2408902,41.2251429 21.2980969,41.4336 L22.0875495,44.0448 Z M30.5741639,39.6123429 C28.2058064,39.6123429 27.3591471,40.6436571 27.3591471,43.5291429 C27.3591471,46.4146286 28.2058064,47.4459429 30.5741639,47.4459429 C31.6610913,47.4459429 32.3018064,47.3691429 32.9997282,47.1606857 L32.8738734,46.1293714 C32.1988343,46.2171429 31.5810019,46.2390857 30.5741639,46.2390857 C29.2698511,46.2390857 28.8694041,45.6027429 28.8694041,43.5291429 C28.8694041,41.4555429 29.2698511,40.8192 30.5741639,40.8192 C31.5237952,40.8192 31.9928902,40.8411429 32.7022533,40.896 L32.8395494,39.8537143 C32.1530689,39.6781714 31.6267673,39.6123429 30.5741639,39.6123429 Z M41.497784,46.2061714 L38.4086219,46.2061714 C37.9967337,46.2061714 37.8365549,46.0416 37.8365549,45.5698286 L37.8365549,43.8802286 L41.0744543,43.8802286 L41.0744543,42.8269714 L37.8365549,42.8269714 L37.8365549,41.4994286 C37.8365549,41.0276571 37.9967337,40.8630857 38.4086219,40.8630857 L41.497784,40.8630857 L41.566432,39.8098286 C40.52527,39.7220571 39.2438398,39.7220571 38.0882644,39.7220571 C37.0585437,39.7220571 36.4063873,40.2706286 36.394946,41.1593143 L36.394946,45.8989714 C36.4063873,46.7876571 37.0471024,47.3362286 38.0882644,47.3362286 C39.2438398,47.3362286 40.52527,47.3362286 41.566432,47.2484571 L41.497784,46.2061714 Z M50.1331358,40.8630857 L50.2132252,39.8208 C49.2063872,39.7220571 47.9707224,39.7220571 46.849471,39.7220571 C45.8197504,39.7220571 45.1561526,40.2596571 45.1561526,41.2141714 L45.1561526,47.3142857 L46.5977615,47.3142857 L46.5977615,44.0228571 L49.7098062,44.0228571 L49.7098062,42.9586286 L46.5977615,42.9586286 L46.5977615,41.4994286 C46.5977615,41.0276571 46.7693816,40.8630857 47.2728006,40.8630857 L50.1331358,40.8630857 Z M55.050052,39.744 L53.6198844,39.744 L53.6198844,45.7673143 C53.6198844,46.6779429 54.077538,47.3362286 55.3932922,47.3362286 C56.4573369,47.3362286 57.5328229,47.3252571 58.5282196,47.2374857 L58.4710129,46.1732571 L55.7250911,46.1732571 C55.2216721,46.1732571 55.050052,46.0086857 55.050052,45.5478857 L55.050052,39.744 Z M63.2506329,47.3142857 L63.2506329,39.744 L61.8204653,39.744 L61.8204653,47.3142857 L63.2506329,47.3142857 Z M72.9385881,42.9476571 L71.5427446,42.9476571 L71.5427446,45.7453714 C71.0622083,46.0306286 70.5473479,46.272 69.8837502,46.272 C68.8197055,46.272 68.4650239,45.6027429 68.4650239,43.5730286 C68.4650239,41.1044571 68.9913256,40.8082286 70.4901412,40.8082286 C71.0278842,40.8082286 71.8287781,40.8301714 72.5724652,40.8740571 L72.6868787,39.8537143 C71.9889569,39.6672 71.2109457,39.6013714 70.4214932,39.6013714 C67.8700742,39.6013714 66.9662083,40.4681143 66.9662083,43.4962286 C66.9662083,46.2281143 67.6870127,47.4569143 69.4375379,47.4569143 C70.5359066,47.4569143 71.3253591,46.9522286 71.7486887,46.5682286 L71.8745435,47.3142857 L72.9385881,47.3142857 L72.9385881,42.9476571 Z M82.6951914,39.744 L81.2650238,39.744 L81.2650238,42.7172571 L78.1415378,42.7172571 L78.1415378,39.744 L76.7113702,39.744 L76.7113702,47.3142857 L78.1415378,47.3142857 L78.1415378,43.8473143 L81.2650238,43.8473143 L81.2650238,47.3142857 L82.6951914,47.3142857 L82.6951914,39.744 Z M92.3373813,40.9179429 L92.3373813,39.744 L86.0446439,39.744 L86.0446439,40.9179429 L88.4587668,40.9179429 L88.4587668,47.3142857 L89.9003757,47.3142857 L89.9003757,40.9179429 L92.3373813,40.9179429 Z M95.3207108,45.8112 C94.9431466,45.8112 94.8172919,45.9318857 94.8172919,46.2829714 L94.8172919,46.8425143 C94.8172919,47.1936 94.9431466,47.3142857 95.3207108,47.3142857 L95.7325991,47.3142857 C96.1101634,47.3142857 96.2360181,47.1936 96.2360181,46.8425143 L96.2360181,46.2829714 C96.2360181,45.9318857 96.1101634,45.8112 95.7325991,45.8112 L95.3207108,45.8112 Z M102.937783,39.6123429 C100.569426,39.6123429 99.7227666,40.6436571 99.7227666,43.5291429 C99.7227666,46.4146286 100.569426,47.4459429 102.937783,47.4459429 C104.024711,47.4459429 104.665426,47.3691429 105.363348,47.1606857 L105.237493,46.1293714 C104.562454,46.2171429 103.944621,46.2390857 102.937783,46.2390857 C101.633471,46.2390857 101.233024,45.6027429 101.233024,43.5291429 C101.233024,41.4555429 101.633471,40.8192 102.937783,40.8192 C103.887415,40.8192 104.35651,40.8411429 105.065873,40.896 L105.203169,39.8537143 C104.516688,39.6781714 103.990387,39.6123429 102.937783,39.6123429 Z M111.687549,39.6013714 C109.284867,39.6013714 108.438208,40.5229714 108.438208,43.5291429 C108.438208,46.5353143 109.284867,47.4569143 111.687549,47.4569143 C114.101672,47.4569143 114.948331,46.5353143 114.948331,43.5291429 C114.948331,40.5229714 114.101672,39.6013714 111.687549,39.6013714 Z M111.687549,40.7753143 C113.026186,40.7753143 113.438074,41.4226286 113.438074,43.5291429 C113.438074,45.6356571 113.026186,46.2829714 111.687549,46.2829714 C110.360353,46.2829714 109.948465,45.6356571 109.948465,43.5291429 C109.948465,41.4226286 110.360353,40.7753143 111.687549,40.7753143 Z M124.92232,39.744 C124.601962,39.744 124.407459,39.8976 124.32737,40.2048 L123.206118,44.2971429 C123.103146,44.6592 123.034498,44.9883429 122.96585,45.3394286 L122.79423,45.3394286 C122.714141,44.9883429 122.656934,44.6592 122.553962,44.3081143 L121.432711,40.2048 C121.352621,39.8976 121.16956,39.744 120.849202,39.744 L119.361828,39.744 C118.995705,39.744 118.812644,39.9305143 118.801202,40.2816 L118.503727,47.3142857 L119.899571,47.3142857 L120.15128,40.8521143 L120.345783,40.8521143 L121.730186,45.888 C121.810275,46.1842286 122.004778,46.3488 122.336577,46.3488 L123.434945,46.3488 C123.755303,46.3488 123.949806,46.1842286 124.029895,45.888 L125.391415,40.8521143 L125.6088,40.8521143 L125.871951,47.3142857 L127.279236,47.3142857 L126.958878,40.2816 C126.947437,39.9305143 126.764375,39.744 126.398253,39.744 L124.92232,39.744 Z" id="SPACEFLIGHT.COM" fill="#D15E60"></path>
    </g>
</svg>
